<mxfile host="Electron" modified="2024-02-28T07:20:51.041Z" agent="Mozilla/5.0 (Windows NT 10.0; Win64; x64) AppleWebKit/537.36 (KHTML, like Gecko) draw.io/23.1.5 Chrome/120.0.6099.109 Electron/28.1.0 Safari/537.36" etag="yCeFI4ICFc0g0eb56MlL" version="23.1.5" type="device">
  <diagram name="Страница — 1" id="5aKSt_qhOw6Z1Nbezn-Z">
    <mxGraphModel dx="993" dy="639" grid="1" gridSize="10" guides="1" tooltips="1" connect="1" arrows="1" fold="1" page="1" pageScale="1" pageWidth="649" pageHeight="1011" math="0" shadow="0">
      <root>
        <mxCell id="0" />
        <mxCell id="1" parent="0" />
        <mxCell id="H3CtyR5G66wJu9WSrzPQ-4" style="edgeStyle=orthogonalEdgeStyle;rounded=0;orthogonalLoop=1;jettySize=auto;html=1;exitX=0.5;exitY=0.5;exitDx=0;exitDy=20;exitPerimeter=0;entryX=0.5;entryY=0;entryDx=0;entryDy=0;endArrow=none;endFill=0;fontFamily=Times New Roman;" edge="1" parent="1" source="H3CtyR5G66wJu9WSrzPQ-2" target="H3CtyR5G66wJu9WSrzPQ-3">
          <mxGeometry relative="1" as="geometry" />
        </mxCell>
        <mxCell id="H3CtyR5G66wJu9WSrzPQ-2" value="dop()" style="html=1;dashed=0;whiteSpace=wrap;shape=mxgraph.dfd.start;fontFamily=Times New Roman;fontSize=14;" vertex="1" parent="1">
          <mxGeometry x="40" y="40" width="120" height="40" as="geometry" />
        </mxCell>
        <mxCell id="H3CtyR5G66wJu9WSrzPQ-11" style="edgeStyle=orthogonalEdgeStyle;rounded=0;orthogonalLoop=1;jettySize=auto;html=1;exitX=0.5;exitY=1;exitDx=0;exitDy=0;endArrow=none;endFill=0;" edge="1" parent="1" source="H3CtyR5G66wJu9WSrzPQ-3" target="H3CtyR5G66wJu9WSrzPQ-7">
          <mxGeometry relative="1" as="geometry" />
        </mxCell>
        <mxCell id="H3CtyR5G66wJu9WSrzPQ-3" value="q++, int num = arr[i], i++" style="rounded=0;whiteSpace=wrap;html=1;fontFamily=Times New Roman;fontSize=14;" vertex="1" parent="1">
          <mxGeometry x="40" y="120" width="120" height="80" as="geometry" />
        </mxCell>
        <mxCell id="H3CtyR5G66wJu9WSrzPQ-8" style="edgeStyle=orthogonalEdgeStyle;rounded=0;orthogonalLoop=1;jettySize=auto;html=1;exitX=1;exitY=0.5;exitDx=0;exitDy=0;endArrow=none;endFill=0;" edge="1" parent="1" source="H3CtyR5G66wJu9WSrzPQ-7">
          <mxGeometry relative="1" as="geometry">
            <mxPoint x="200" y="280" as="targetPoint" />
          </mxGeometry>
        </mxCell>
        <mxCell id="H3CtyR5G66wJu9WSrzPQ-10" value="Да" style="edgeLabel;html=1;align=center;verticalAlign=middle;resizable=0;points=[];fontFamily=Times New Roman;fontSize=14;" vertex="1" connectable="0" parent="H3CtyR5G66wJu9WSrzPQ-8">
          <mxGeometry x="-0.0125" relative="1" as="geometry">
            <mxPoint y="-10" as="offset" />
          </mxGeometry>
        </mxCell>
        <mxCell id="H3CtyR5G66wJu9WSrzPQ-12" style="edgeStyle=orthogonalEdgeStyle;rounded=0;orthogonalLoop=1;jettySize=auto;html=1;exitX=0.5;exitY=1;exitDx=0;exitDy=0;endArrow=none;endFill=0;" edge="1" parent="1" source="H3CtyR5G66wJu9WSrzPQ-7">
          <mxGeometry relative="1" as="geometry">
            <mxPoint x="100" y="360" as="targetPoint" />
          </mxGeometry>
        </mxCell>
        <mxCell id="H3CtyR5G66wJu9WSrzPQ-13" value="Нет" style="edgeLabel;html=1;align=center;verticalAlign=middle;resizable=0;points=[];fontFamily=Times New Roman;fontSize=14;" vertex="1" connectable="0" parent="H3CtyR5G66wJu9WSrzPQ-12">
          <mxGeometry x="-0.0813" y="1" relative="1" as="geometry">
            <mxPoint x="19" as="offset" />
          </mxGeometry>
        </mxCell>
        <mxCell id="H3CtyR5G66wJu9WSrzPQ-7" value="n = 0" style="rhombus;whiteSpace=wrap;html=1;fontFamily=Times New Roman;fontSize=15;" vertex="1" parent="1">
          <mxGeometry x="40" y="240" width="120" height="80" as="geometry" />
        </mxCell>
        <mxCell id="H3CtyR5G66wJu9WSrzPQ-9" value="Вернуть 0" style="html=1;dashed=0;whiteSpace=wrap;shape=mxgraph.dfd.start;fontFamily=Times New Roman;fontSize=14;" vertex="1" parent="1">
          <mxGeometry x="200" y="260" width="120" height="40" as="geometry" />
        </mxCell>
        <mxCell id="H3CtyR5G66wJu9WSrzPQ-16" style="edgeStyle=orthogonalEdgeStyle;rounded=0;orthogonalLoop=1;jettySize=auto;html=1;exitX=0.5;exitY=1;exitDx=0;exitDy=0;entryX=0.5;entryY=0;entryDx=0;entryDy=0;endArrow=none;endFill=0;" edge="1" parent="1" source="H3CtyR5G66wJu9WSrzPQ-14" target="H3CtyR5G66wJu9WSrzPQ-15">
          <mxGeometry relative="1" as="geometry" />
        </mxCell>
        <mxCell id="H3CtyR5G66wJu9WSrzPQ-14" value="tmp_max = dop()" style="shape=process;whiteSpace=wrap;html=1;backgroundOutline=1;fontFamily=Times New Roman;fontSize=15;" vertex="1" parent="1">
          <mxGeometry x="40" y="360" width="120" height="80" as="geometry" />
        </mxCell>
        <mxCell id="H3CtyR5G66wJu9WSrzPQ-15" value="Вернуть max(tmp_max, num)" style="shape=process;whiteSpace=wrap;html=1;backgroundOutline=1;fontFamily=Times New Roman;fontSize=15;" vertex="1" parent="1">
          <mxGeometry x="40" y="476" width="120" height="84" as="geometry" />
        </mxCell>
        <mxCell id="H3CtyR5G66wJu9WSrzPQ-17" value="Конец" style="html=1;dashed=0;whiteSpace=wrap;shape=mxgraph.dfd.start;fontFamily=Times New Roman;fontSize=14;" vertex="1" parent="1">
          <mxGeometry x="200" y="498" width="120" height="40" as="geometry" />
        </mxCell>
        <mxCell id="H3CtyR5G66wJu9WSrzPQ-18" style="edgeStyle=orthogonalEdgeStyle;rounded=0;orthogonalLoop=1;jettySize=auto;html=1;exitX=1;exitY=0.5;exitDx=0;exitDy=0;entryX=0;entryY=0.5;entryDx=0;entryDy=0;entryPerimeter=0;endArrow=none;endFill=0;" edge="1" parent="1" source="H3CtyR5G66wJu9WSrzPQ-15" target="H3CtyR5G66wJu9WSrzPQ-17">
          <mxGeometry relative="1" as="geometry" />
        </mxCell>
      </root>
    </mxGraphModel>
  </diagram>
</mxfile>
